<?xml version="1.0" encoding="utf-8"?>
<!-- Generator: Adobe Illustrator 18.0.0, SVG Export Plug-In . SVG Version: 6.00 Build 0)  -->
<!DOCTYPE svg PUBLIC "-//W3C//DTD SVG 1.1//EN" "http://www.w3.org/Graphics/SVG/1.1/DTD/svg11.dtd">
<svg version="1.1" id="Layer_1" xmlns="http://www.w3.org/2000/svg" xmlns:xlink="http://www.w3.org/1999/xlink" x="0px" y="0px"
	 viewBox="0 0 100 100" enable-background="new 0 0 100 100" xml:space="preserve">
<path fill="#231F20" d="M53.3,31l17.8,17.8h-46c-0.8,0-1.4,0.6-1.4,1.4c0,0.8,0.6,1.4,1.4,1.4h46L53.3,69.5c-0.3,0.3-0.4,0.7-0.4,1
	c0,0.4,0.1,0.7,0.4,1c0.6,0.6,1.5,0.6,2,0l20.2-20.2c0.1-0.1,0.2-0.3,0.3-0.5c0.1-0.4,0.1-0.8,0-1.1c-0.1-0.2-0.2-0.3-0.3-0.5
	L55.3,29c-0.6-0.6-1.5-0.6-2,0C52.7,29.5,52.7,30.5,53.3,31z"/>
<path fill="#231F20" d="M91.8,50.2c0-23.2-18.8-42-42-42s-42,18.8-42,42c0,23.2,18.8,42,42,42S91.8,73.4,91.8,50.2z M11.3,50.2
	c0-21.2,17.3-38.5,38.5-38.5S88.3,29,88.3,50.2c0,21.2-17.3,38.5-38.5,38.5S11.3,71.5,11.3,50.2z"/>
</svg>
